<mxfile host="app.diagrams.net" modified="2021-09-26T19:28:54.726Z" agent="5.0 (Windows NT 10.0; Win64; x64) AppleWebKit/537.36 (KHTML, like Gecko) Chrome/93.0.4577.82 Safari/537.36" etag="Jjtmz1Ygc4ZID_T9Sc85" version="15.3.4" type="github">
  <diagram id="XgAlg8wFspZxP0kKtR2K" name="Page-1">
    <mxGraphModel dx="1480" dy="816" grid="1" gridSize="10" guides="1" tooltips="1" connect="1" arrows="1" fold="1" page="1" pageScale="1" pageWidth="827" pageHeight="1169" math="0" shadow="0">
      <root>
        <mxCell id="0" />
        <mxCell id="1" parent="0" />
        <mxCell id="qsNnu-iR1UT7rx6P0dh6-1" value="6.1" style="swimlane;childLayout=stackLayout;horizontal=1;startSize=30;horizontalStack=0;rounded=1;fontSize=14;fontStyle=1;strokeWidth=2;resizeParent=0;resizeLast=1;shadow=0;dashed=0;align=center;hachureGap=4;pointerEvents=0;fillColor=#dae8fc;strokeColor=#6c8ebf;" vertex="1" parent="1">
          <mxGeometry x="349" y="80" width="130" height="120" as="geometry" />
        </mxCell>
        <mxCell id="qsNnu-iR1UT7rx6P0dh6-2" value="Add Transport Info" style="align=center;spacingLeft=4;fontSize=14;verticalAlign=top;resizable=0;rotatable=0;part=1;" vertex="1" parent="qsNnu-iR1UT7rx6P0dh6-1">
          <mxGeometry y="30" width="130" height="90" as="geometry" />
        </mxCell>
        <mxCell id="qsNnu-iR1UT7rx6P0dh6-3" value="" style="align=center;spacingLeft=4;fontSize=14;verticalAlign=top;resizable=0;rotatable=0;part=1;" vertex="1" parent="qsNnu-iR1UT7rx6P0dh6-1">
          <mxGeometry y="120" width="130" as="geometry" />
        </mxCell>
        <mxCell id="qsNnu-iR1UT7rx6P0dh6-4" value="" style="align=center;spacingLeft=4;fontSize=14;verticalAlign=top;resizable=0;rotatable=0;part=1;" vertex="1" parent="qsNnu-iR1UT7rx6P0dh6-1">
          <mxGeometry y="120" width="130" as="geometry" />
        </mxCell>
        <mxCell id="qsNnu-iR1UT7rx6P0dh6-5" value="6.2" style="swimlane;childLayout=stackLayout;horizontal=1;startSize=30;horizontalStack=0;rounded=1;fontSize=14;fontStyle=1;strokeWidth=2;resizeParent=0;resizeLast=1;shadow=0;dashed=0;align=center;hachureGap=4;pointerEvents=0;fillColor=#dae8fc;strokeColor=#6c8ebf;" vertex="1" parent="1">
          <mxGeometry x="349" y="240" width="130" height="120" as="geometry" />
        </mxCell>
        <mxCell id="qsNnu-iR1UT7rx6P0dh6-6" value="View Transport Info" style="align=center;spacingLeft=4;fontSize=14;verticalAlign=top;resizable=0;rotatable=0;part=1;" vertex="1" parent="qsNnu-iR1UT7rx6P0dh6-5">
          <mxGeometry y="30" width="130" height="90" as="geometry" />
        </mxCell>
        <mxCell id="qsNnu-iR1UT7rx6P0dh6-7" value="" style="align=center;spacingLeft=4;fontSize=14;verticalAlign=top;resizable=0;rotatable=0;part=1;" vertex="1" parent="qsNnu-iR1UT7rx6P0dh6-5">
          <mxGeometry y="120" width="130" as="geometry" />
        </mxCell>
        <mxCell id="qsNnu-iR1UT7rx6P0dh6-8" value="" style="align=center;spacingLeft=4;fontSize=14;verticalAlign=top;resizable=0;rotatable=0;part=1;" vertex="1" parent="qsNnu-iR1UT7rx6P0dh6-5">
          <mxGeometry y="120" width="130" as="geometry" />
        </mxCell>
        <mxCell id="qsNnu-iR1UT7rx6P0dh6-13" value="6.3" style="swimlane;childLayout=stackLayout;horizontal=1;startSize=30;horizontalStack=0;rounded=1;fontSize=14;fontStyle=1;strokeWidth=2;resizeParent=0;resizeLast=1;shadow=0;dashed=0;align=center;hachureGap=4;pointerEvents=0;fillColor=#dae8fc;strokeColor=#6c8ebf;" vertex="1" parent="1">
          <mxGeometry x="349" y="400" width="130" height="120" as="geometry" />
        </mxCell>
        <mxCell id="qsNnu-iR1UT7rx6P0dh6-14" value="Update Transport&#xa;Info" style="align=center;spacingLeft=4;fontSize=14;verticalAlign=top;resizable=0;rotatable=0;part=1;" vertex="1" parent="qsNnu-iR1UT7rx6P0dh6-13">
          <mxGeometry y="30" width="130" height="90" as="geometry" />
        </mxCell>
        <mxCell id="qsNnu-iR1UT7rx6P0dh6-15" value="" style="align=center;spacingLeft=4;fontSize=14;verticalAlign=top;resizable=0;rotatable=0;part=1;" vertex="1" parent="qsNnu-iR1UT7rx6P0dh6-13">
          <mxGeometry y="120" width="130" as="geometry" />
        </mxCell>
        <mxCell id="qsNnu-iR1UT7rx6P0dh6-16" value="" style="align=center;spacingLeft=4;fontSize=14;verticalAlign=top;resizable=0;rotatable=0;part=1;" vertex="1" parent="qsNnu-iR1UT7rx6P0dh6-13">
          <mxGeometry y="120" width="130" as="geometry" />
        </mxCell>
        <mxCell id="qsNnu-iR1UT7rx6P0dh6-17" value="6.4" style="swimlane;childLayout=stackLayout;horizontal=1;startSize=30;horizontalStack=0;rounded=1;fontSize=14;fontStyle=1;strokeWidth=2;resizeParent=0;resizeLast=1;shadow=0;dashed=0;align=center;hachureGap=4;pointerEvents=0;fillColor=#dae8fc;strokeColor=#6c8ebf;" vertex="1" parent="1">
          <mxGeometry x="349" y="560" width="130" height="120" as="geometry" />
        </mxCell>
        <mxCell id="qsNnu-iR1UT7rx6P0dh6-18" value="Delete Transport Info" style="align=center;spacingLeft=4;fontSize=14;verticalAlign=top;resizable=0;rotatable=0;part=1;" vertex="1" parent="qsNnu-iR1UT7rx6P0dh6-17">
          <mxGeometry y="30" width="130" height="90" as="geometry" />
        </mxCell>
        <mxCell id="qsNnu-iR1UT7rx6P0dh6-19" value="" style="align=center;spacingLeft=4;fontSize=14;verticalAlign=top;resizable=0;rotatable=0;part=1;" vertex="1" parent="qsNnu-iR1UT7rx6P0dh6-17">
          <mxGeometry y="120" width="130" as="geometry" />
        </mxCell>
        <mxCell id="qsNnu-iR1UT7rx6P0dh6-20" value="" style="align=center;spacingLeft=4;fontSize=14;verticalAlign=top;resizable=0;rotatable=0;part=1;" vertex="1" parent="qsNnu-iR1UT7rx6P0dh6-17">
          <mxGeometry y="120" width="130" as="geometry" />
        </mxCell>
        <mxCell id="qsNnu-iR1UT7rx6P0dh6-22" value="&lt;b&gt;&lt;font style=&quot;font-size: 14px&quot;&gt;Driver&lt;/font&gt;&lt;/b&gt;" style="whiteSpace=wrap;html=1;align=center;hachureGap=4;pointerEvents=0;" vertex="1" parent="1">
          <mxGeometry x="560" y="600" width="100" height="40" as="geometry" />
        </mxCell>
        <mxCell id="qsNnu-iR1UT7rx6P0dh6-23" value="&lt;b&gt;&lt;font style=&quot;font-size: 14px&quot;&gt;Admin&lt;/font&gt;&lt;/b&gt;" style="whiteSpace=wrap;html=1;align=center;hachureGap=4;pointerEvents=0;" vertex="1" parent="1">
          <mxGeometry x="180" y="360" width="100" height="40" as="geometry" />
        </mxCell>
        <mxCell id="qsNnu-iR1UT7rx6P0dh6-24" value="&lt;font size=&quot;3&quot;&gt;&lt;b&gt;D1&amp;nbsp; TSM Database&lt;/b&gt;&lt;/font&gt;" style="html=1;dashed=0;whitespace=wrap;shape=mxgraph.dfd.dataStoreID;align=left;spacingLeft=3;points=[[0,0],[0.5,0],[1,0],[0,0.5],[1,0.5],[0,1],[0.5,1],[1,1]];hachureGap=4;pointerEvents=0;" vertex="1" parent="1">
          <mxGeometry x="560" y="365" width="140" height="30" as="geometry" />
        </mxCell>
      </root>
    </mxGraphModel>
  </diagram>
</mxfile>
